Coordinates
version=1
nRows=17
nColumns=24
inDegrees=yes

Units are S.I. units (second, meters, Newtons, ...)
Angles are in degrees.

endheader
time	pelvis_tilt	pelvis_list	pelvis_rotation	pelvis_tx	pelvis_ty	pelvis_tz	hip_flexion_r	hip_adduction_r	hip_rotation_r	knee_angle_r	ankle_angle_r	subtalar_angle_r	mtp_angle_r	hip_flexion_l	hip_adduction_l	hip_rotation_l	knee_angle_l	ankle_angle_l	subtalar_angle_l	mtp_angle_l	lumbar_extension	lumbar_bending	lumbar_rotation
      1.42500000	      1.63687423	      6.36664117	     -4.43947749	      0.39407780	      1.02261562	      0.28478456	     15.43796638	     -6.89982638	     -0.22282734	    -61.28329982	      5.15313569	    -13.27538609	      1.52043246	      2.37979181	     11.08572623	      0.40476819	     -7.36113169	      0.74342534	    -18.61731344	      5.33884862	     -4.50809074	     -8.05990309	      5.00964866
      1.42916667	      1.63754125	      6.26704622	     -4.26592163	      0.39906793	      1.02310474	      0.28461702	     15.83980536	     -6.75934840	     -0.35351177	    -60.52780000	      5.34880880	    -13.18483652	      1.45601310	      1.86898174	     11.00853685	      0.64700201	     -7.02268711	      0.79811190	    -18.61247182	      5.26746449	     -4.55975650	     -7.95812143	      4.72746586
      1.43333333	      1.62262205	      6.17679956	     -4.09243822	      0.40405377	      1.02351574	      0.28445511	     16.25088666	     -6.63245816	     -0.48629109	    -59.74272321	      5.54293474	    -13.08791812	      1.39612428	      1.38143247	     10.93604352	      0.87807387	     -6.69370350	      0.86305319	    -18.59447041	      5.19635384	     -4.59049438	     -7.86223399	      4.45131021
      1.43750000	      1.60171564	      6.07483199	     -3.91445167	      0.40902905	      1.02390280	      0.28430787	     16.64812286	     -6.49089821	     -0.62054128	    -58.90613299	      5.73320558	    -13.00542153	      1.36498847	      0.91416713	     10.84238221	      1.06968763	     -6.39031142	      0.91874220	    -18.52612475	      5.15688220	     -4.61257822	     -7.75967758	      4.27006665
      1.44166667	      1.63003843	      5.99572733	     -3.75004285	      0.41399861	      1.02430168	      0.28415663	     16.99090691	     -6.38837639	     -0.75542540	    -58.04879000	      5.88771197	    -12.92870342	      1.31286378	      0.37456547	     10.77891445	      1.30822943	     -6.04217960	      1.00115921	    -18.52217119	      5.09009443	     -4.69799323	     -7.67317111	      3.91769758
      1.44583333	      1.58868676	      5.90448173	     -3.57725200	      0.41895931	      1.02457761	      0.28403187	     17.39150259	     -6.25993660	     -0.88198030	    -57.14870893	      6.05644091	    -12.85533487	      1.28864040	     -0.06318165	     10.68785992	      1.48909522	     -5.74493624	      1.05461520	    -18.44724271	      5.05730390	     -4.69753426	     -7.57897014	      3.75385761
      1.45000000	      1.60176319	      5.84296438	     -3.41362541	      0.42389945	      1.02485774	      0.28390433	     17.73410652	     -6.17814061	     -1.01037994	    -56.23555094	      6.18923858	    -12.78633914	      1.23286088	     -0.57655259	     10.63463973	      1.73074824	     -5.40666477	      1.13031948	    -18.45965831	      4.98157140	     -4.76928810	     -7.52234956	      3.36284362
      1.45416667	      1.56079705	      5.76152585	     -3.24701391	      0.42886098	      1.02504451	      0.28378565	     18.11298623	     -6.06984396	     -1.13962441	    -55.27460902	      6.32163236	    -12.71814278	      1.20727775	     -1.00790110	     10.54893609	      1.89639046	     -5.11854097	      1.19865061	    -18.39132720	      4.94616063	     -4.75956162	     -7.43172381	      3.20790039
      1.45833333	      1.55612958	      5.69630881	     -3.08355855	      0.43379166	      1.02523782	      0.28368613	     18.44558677	     -5.98581114	     -1.27111253	    -54.28891599	      6.43100075	    -12.65055683	      1.17895535	     -1.48221640	     10.48010778	      2.08568210	     -4.81472814	      1.27361319	    -18.34225093	      4.90698493	     -4.80336278	     -7.36495308	      2.96495338
      1.46250000	      1.55116648	      5.64206376	     -2.93382164	      0.43872882	      1.02536881	      0.28359271	     18.77513913	     -5.91494966	     -1.38999192	    -53.28717157	      6.50196465	    -12.61440171	      1.13416784	     -1.96453892	     10.42384735	      2.29209000	     -4.49244495	      1.36320056	    -18.34063228	      4.84427048	     -4.84676955	     -7.31152263	      2.62213095
      1.46666667	      1.49805909	      5.58461370	     -2.78096060	      0.44366933	      1.02542107	      0.28352253	     19.13859042	     -5.83497937	     -1.50279409	    -52.24645004	      6.58972576	    -12.54412532	      1.11262345	     -2.37136033	     10.35423076	      2.44386635	     -4.21436004	      1.42078372	    -18.26985410	      4.81332367	     -4.82869430	     -7.25109925	      2.47515126
      1.47083333	      1.46671262	      5.52405320	     -2.63102037	      0.44860126	      1.02545052	      0.28344928	     19.46561535	     -5.75875769	     -1.62386312	    -51.17675030	      6.63547411	    -12.49282533	      1.08893125	     -2.80338821	     10.28199231	      2.60944487	     -3.93353234	      1.50962878	    -18.21892947	      4.78094100	     -4.83776725	     -7.18891838	      2.26075056
      1.47500000	      1.44912612	      5.48075547	     -2.49081228	      0.45353580	      1.02545376	      0.28338883	     19.77096187	     -5.70385220	     -1.73689692	    -50.08855972	      6.66315179	    -12.44501703	      1.06352319	     -3.25139040	     10.22779573	      2.77634300	     -3.64727795	      1.59543728	    -18.17553280	      4.74473915	     -4.85815662	     -7.14237192	      2.01998424
      1.47916667	      1.41713573	      5.43311716	     -2.35293130	      0.45846741	      1.02540327	      0.28334828	     20.07850299	     -5.64522970	     -1.85618082	    -48.97377508	      6.67340405	    -12.39356058	      1.03953213	     -3.67806285	     10.16504176	      2.93122324	     -3.37088555	      1.68155474	    -18.13722435	      4.71016270	     -4.87169633	     -7.09492491	      1.79910452
      1.48333333	      1.39772201	      5.40522930	     -2.22603322	      0.46339678	      1.02531589	      0.28331749	     20.36834359	     -5.60796231	     -1.96043731	    -47.84629504	      6.65167266	    -12.37409989	      1.00057108	     -4.12564478	     10.12449854	      3.11359691	     -3.07804063	      1.77936278	    -18.13354570	      4.64897610	     -4.89814955	     -7.07505497	      1.48555777
      1.48750000	      1.33677997	      5.38092411	     -2.10269427	      0.46833777	      1.02513168	      0.28329485	     20.69131500	     -5.57613025	     -2.06802191	    -46.69723376	      6.64762909	    -12.27746359	      0.98402892	     -4.50561373	     10.08328925	      3.23527130	     -2.82960241	      1.85910273	    -18.06892835	      4.62183110	     -4.86336782	     -7.04782614	      1.36982013
      1.49166667	      1.29335191	      5.34521472	     -1.98069951	      0.47328796	      1.02494374	      0.28327069	     20.97513655	     -5.53596872	     -2.18646659	    -45.51290793	      6.59948868	    -12.21619276	      0.96462733	     -4.90808407	     10.02992795	      3.37133755	     -2.57809363	      1.96378391	    -18.02398728	      4.58942288	     -4.85656938	     -7.01017072	      1.18482827
